<svg width="16" height="16" xmlns="http://www.w3.org/2000/svg"
  xmlns:xlink="http://www.w3.org/1999/xlink" viewBox="0 0 65 54" fill="#fff" fill-rule="evenodd"
  stroke="#000" stroke-linecap="round" stroke-linejoin="round">
  <use xlink:href="#A" x=".5" y=".5"/>
  <symbol id="A" overflow="visible">
    <g stroke="none" fill-rule="nonzero">
      <path
        d="M56.78.387c-.956 0-1.9-.003-2.864-.003-2.264-.005-4.354 1.727-5.952 3.1a32.47 32.47 0 0 0-4.162 4.568c-.466-1.244-1.028-2.45-1.68-3.607a6.69 6.69 0 0 0-4.209-3.52c-.943-.128-1.896-.16-2.846-.098-.8-.003-3.068 0-3.068 0s-2.272-.003-3.07 0a14.18 14.18 0 0 0-2.846.098 6.69 6.69 0 0 0-4.209 3.52c-.653 1.157-1.214 2.362-1.68 3.606-1.24-1.65-2.633-3.18-4.162-4.568-1.6-1.373-3.686-3.105-5.953-3.1L7.215.386Q5.17.39 3.115.392C2.122.396-.078.135.443 1.752c.126.392.57.743.822 1.07l.823 1.15 1.164 1.945 2.546 4.82c1.9 3.528 4.097 6.887 6.57 10.04 1.865 2.303 4.118 4.628 6.905 5.77q-3.156 5.866-6.297 11.74l-5.832 10.57c-.324.5-.532 1.083-.608 1.682.002 1.08 1.606 1.113 2.375 1.118.828.005 1.66-.018 2.487-.026q2.16-.024 4.32-.05c.853-.01 1.72.024 2.568-.057a7.51 7.51 0 0 0 5.41-3.057c.413-.576 4.286-6.928 5.853-9.494C30.14 38 32 35.098 32 35.098l2.448 3.875 5.853 9.494a7.51 7.51 0 0 0 5.41 3.057c.85.08 1.715.048 2.567.057q2.158.022 4.32.05l2.488.026c.766-.005 2.373-.037 2.375-1.118a4.05 4.05 0 0 0-.61-1.682c-.087-.163-.18-.322-.274-.485-1.913-3.33-3.73-6.698-5.545-10.083q-3.15-5.87-6.3-11.74c2.788-1.143 5.04-3.468 6.906-5.77a70.14 70.14 0 0 0 6.571-10.04c.887-1.586 1.64-3.25 2.537-4.83a53.72 53.72 0 0 1 1.154-1.938c.254-.397.53-.78.822-1.15.33-.31.607-.672.824-1.07.52-1.617-1.678-1.355-2.67-1.36Q58.825.39 56.78.387z"
        fill="#f9c638"/>
      <path
        d="M36.73 9.4l.436-.074c.2-.042.398-.1.59-.17a3.45 3.45 0 0 0 1.079-.613 1.31 1.31 0 0 0 .357-.384c-1.264.023-2.206.016-2.828-.032-.17-.026-.293.412-.374 1.297-.01.068.4.023.74-.023m-3.476 6.182zm-2.703 0zm-.205-.288c-.016.018-.025.04-.024.066s.014.054.036.072a1.45 1.45 0 0 0 .193.15 2.38 2.38 0 0 0 1.35.398 2.35 2.35 0 0 0 1.354-.398c.07-.044.14-.095.202-.15.048-.04.07-.102.035-.143-.044-.044-.116-.046-.162-.003-.058.05-.118.094-.18.136h-.002a2.31 2.31 0 0 1-2.489.001h-.003a1.9 1.9 0 0 1-.17-.136c-.02-.018-.045-.026-.07-.025s-.05.014-.068.034zm5.55-.843c-.005-.01-.01-.02-.012-.032l.014.032zm2.978-3.535a1.75 1.75 0 0 0-.483-.632 1.52 1.52 0 0 0-1.919.081 2.56 2.56 0 0 0-.54.819 4.98 4.98 0 0 0-.465 2.22 1.52 1.52 0 0 0 .383.946 2 2 0 0 0 1.103.508c.405.123.84.104 1.233-.053a1.79 1.79 0 0 0 .727-1.19 4.96 4.96 0 0 0 .234-1.736 2.86 2.86 0 0 0-.272-.962z"
        fill="#2a2d2c"/>
      <path
        d="M37.463 12.317a3.63 3.63 0 0 1 .616-.173c-.45.033-.683-.15-.724-.542l-.084-.817c.016.356-.053.7-.2 1.034a.59.59 0 0 1-.216.216l-.267.085a1.22 1.22 0 0 1-.307.067c.5-.043.756.083.797.354l.142.777c.01-.6.092-.94.242-1m.6 1.214l-.05-.506a1.53 1.53 0 0 1-.117.64.43.43 0 0 1-.142.136l-.157.048a.91.91 0 0 1-.191.042c.298-.025.466.05.5.216l.085.475c0-.375.05-.573.15-.608a1.73 1.73 0 0 1 .375-.108c-.275.018-.424-.1-.45-.335"/>
      <path
        d="M27.8 9.413c-.086-.885-.208-1.323-.376-1.297-.624.048-1.564.055-2.83.032.093.15.214.28.356.384.32.268.686.475 1.08.613.193.07.4.128.59.17.042.01.227.043.437.074.34.047.746.1.742.023m.1 5.028l.013-.032-.01.032H27.9zm-3.248-2.573a4.89 4.89 0 0 0 .234 1.736 1.85 1.85 0 0 0 .725 1.2c.393.157.827.175 1.232.053a2.01 2.01 0 0 0 1.105-.508 1.53 1.53 0 0 0 .384-.946 4.95 4.95 0 0 0-.467-2.221 2.5 2.5 0 0 0-.541-.819c-.54-.48-1.34-.514-1.918-.08a1.71 1.71 0 0 0-.48.632 2.78 2.78 0 0 0-.275.962z"
        fill="#2a2d2c"/>
      <path
        d="M26.324 12.317c-.2-.076-.405-.134-.615-.173.45.033.684-.15.724-.542l.083-.817a2.22 2.22 0 0 0 .201 1.034.6.6 0 0 0 .214.216l.268.085a1.21 1.21 0 0 0 .308.067c-.5-.043-.756.083-.797.354l-.143.777c-.008-.6-.092-.94-.242-1m-.6 1.214l.05-.506a1.54 1.54 0 0 0 .117.64.44.44 0 0 0 .14.136l.158.048a.97.97 0 0 0 .192.042c-.3-.025-.467.05-.5.216l-.084.475c0-.375-.05-.573-.15-.608a1.75 1.75 0 0 0-.375-.108c.275.018.426-.1.45-.335M7.33 48.954l-.4.797c-.114.247-.18.513-.196.784v.004a.63.63 0 0 0 .201.477 1.35 1.35 0 0 0 .547.282 5.63 5.63 0 0 0 1.416.147l.254.002 6.55-.077h.45.53l1.57-.057a7.29 7.29 0 0 0 5.258-2.971c.094-.127.416-.64.86-1.353l1.626-2.632 3.36-5.493 2.45-3.88c.04-.06.107-.098.18-.1s.138.038.177.1c.001.001 1.857 2.902 2.452 3.88L39.6 46.99l.86 1.353a7.28 7.28 0 0 0 5.257 2.971c.513.05 1.04.057 1.568.057h.532.45q2.158.024 4.32.05l2.23.028h.254c.353.004.706-.02 1.055-.07a1.74 1.74 0 0 0 .908-.36.63.63 0 0 0 .201-.477v-.006a2.22 2.22 0 0 0-.193-.784c-.115-.277-.265-.555-.392-.8l-.27-.477c-1.914-3.334-3.734-6.705-5.548-10.1q-3.15-5.87-6.3-11.74c-.028-.053-.032-.115-.012-.172a.21.21 0 0 1 .118-.125c2.73-1.116 4.965-3.416 6.82-5.706 2.466-3.144 4.658-6.494 6.55-10.012.673-1.203 1.272-2.457 1.92-3.692-1.472 2.217-3.297 4.178-5.402 5.805-3.095 2.494-8.355 4.957-15.725 7.362q-10.653 3.49-15.683 8.123l-3.36 2.988c-.15.152-.857.892-2.094 2.263-1.696 1.93-3.284 3.953-4.756 6.06l-1.627 2.3-3.686 6.635-.27.474"/>
      <path
        d="M63.184 1.637a1.31 1.31 0 0 1-.287.424l-.474.528-.003.003-.84 1.178-1.162 1.952-2.538 4.83c-1.9 3.5-4.075 6.85-6.535 9.988-1.85 2.286-4.067 4.56-6.756 5.66a.37.37 0 0 0-.21.22.38.38 0 0 0 .023.305q3.157 5.866 6.3 11.74l5.82 10.577c.127.237.274.5.384.778a2.02 2.02 0 0 1 .181.72v.007a.46.46 0 0 1-.147.358 1.61 1.61 0 0 1-.824.319 7.07 7.07 0 0 1-1.03.067h-.28c-.73 0-1.462-.02-2.2-.026q-2.163-.026-4.32-.05l-.4-.003-.6.001c-.52 0-1.036-.007-1.535-.055-2.052-.18-3.926-1.238-5.14-2.902-.1-.148-.2-.298-.294-.45-1.035-1.63-4.172-6.776-5.543-9.02l-2.452-3.882a.38.38 0 0 0-.317-.173c-.127 0-.248.065-.317.173-.002.002-1.855 2.902-2.453 3.882l-3.348 5.48-1.625 2.632-.56.895c-.095.152-.193.303-.294.45a7.13 7.13 0 0 1-5.141 2.901 16.18 16.18 0 0 1-1.535.055c-.203 0-.406-.001-.6-.001l-.392.003q-2.16.02-4.32.05l-2.2.026h-.28c-.46.01-.922-.036-1.37-.142a1.15 1.15 0 0 1-.481-.244.46.46 0 0 1-.147-.36v-.006c.015-.25.076-.493.18-.72.1-.268.256-.54.382-.777.08-.152.175-.3.27-.477l-.001.003C9.69 45.22 11.5 41.85 13.326 38.463q3.148-5.87 6.297-11.74c.05-.094.06-.205.023-.305s-.113-.18-.212-.22c-2.688-1.098-4.906-3.373-6.756-5.66-2.46-3.136-4.644-6.478-6.533-9.987-.878-1.567-1.632-3.233-2.538-4.83-.373-.66-.76-1.3-1.162-1.952a14.2 14.2 0 0 0-.843-1.18c-.152-.195-.33-.367-.477-.532a1.28 1.28 0 0 1-.285-.423 1.08 1.08 0 0 1-.063-.327.36.36 0 0 1 .079-.248.93.93 0 0 1 .52-.236c.3-.052.606-.076.9-.07.3 0 .6.013.836.013h.03Q5.19.762 7.242.76q1.43 0 2.863-.002h.01a5.97 5.97 0 0 1 3.027.982c.945.6 1.838 1.28 2.67 2.028a31.9 31.9 0 0 1 4.113 4.516c.084.107.22.16.355.138s.247-.114.293-.242c.46-1.225 1.012-2.413 1.655-3.553l.007-.012c.767-1.52 2.317-3 3.95-3.322a6.72 6.72 0 0 1 1.36-.113c.465 0 .94.023 1.4.023l1.15-.001 4.986.001c.47 0 .946-.023 1.412-.023.455-.01.9.03 1.358.113 1.633.33 3.185 1.803 3.952 3.322l.006.012a25.39 25.39 0 0 1 1.655 3.553c.047.128.16.22.294.242s.27-.03.355-.138c1.223-1.633 2.6-3.145 4.1-4.516.833-.75 1.726-1.427 2.67-2.028A5.97 5.97 0 0 1 53.92.759h.01q1.43 0 2.864.002 2.044.004 4.093.006h.03c.246 0 .537-.013.836-.013a3.69 3.69 0 0 1 1.146.134.66.66 0 0 1 .282.171c.057.07.086.158.08.248a1.11 1.11 0 0 1-.06.328zM63.736.57a1.63 1.63 0 0 0-.94-.483 5.35 5.35 0 0 0-1.06-.085c-.32 0-.617.013-.836.013h-.028Q58.824.012 56.778.01c-.955 0-1.9-.002-2.864-.002h.002-.012a6.7 6.7 0 0 0-3.414 1.09c-.98.622-1.908 1.325-2.773 2.1a30.33 30.33 0 0 0-3.804 4.113C43.49 6.266 43 5.248 42.45 4.264A7.05 7.05 0 0 0 37.997.557a7.36 7.36 0 0 0-1.51-.128c-.5 0-.968.022-1.4.022h-1.15-1.94-1.92-1.152c-.44 0-.92-.022-1.407-.022-.508-.01-1.015.034-1.514.13a7.05 7.05 0 0 0-4.467 3.717 27.29 27.29 0 0 0-1.458 3.037C18.94 5.827 17.668 4.45 16.275 3.2a21.3 21.3 0 0 0-2.772-2.1C12.485.433 11.303.057 10.088 0h-.02L7.213.002q-2.046.012-4.1.015h-.016c-.22 0-.518-.013-.836-.013a4.3 4.3 0 0 0-1.4.178 1.4 1.4 0 0 0-.601.39C.086.778-.006 1.04 0 1.31c.003.2.036.378.096.558.1.26.25.496.44.695.17.2.34.357.443.5.286.36.553.732.8 1.118a49.75 49.75 0 0 1 1.146 1.925C3.8 7.663 4.563 9.327 5.46 10.933c1.91 3.546 4.12 6.922 6.604 10.092 1.8 2.217 3.97 4.472 6.68 5.704q-3.062 5.695-6.1 11.394l-5.82 10.57c-.125.234-.283.526-.414.842a2.72 2.72 0 0 0-.238 1.008v.016a1.22 1.22 0 0 0 .379.894 2.3 2.3 0 0 0 1.223.518c.38.054.762.08 1.145.074l.285.001 6.53-.076.384-.002.6.001c.528 0 1.067-.006 1.607-.06a7.88 7.88 0 0 0 5.678-3.21l.32-.486c1.045-1.644 4.18-6.785 5.55-9.03l1.444-2.297.68-1.08.684 1.076 1.444 2.297 3.358 5.494 1.627 2.636.564.9.318.486a7.89 7.89 0 0 0 5.678 3.212c.54.052 1.08.06 1.608.06h.983l6.53.076.285-.001a6.04 6.04 0 0 0 1.576-.17 1.88 1.88 0 0 0 .792-.421 1.21 1.21 0 0 0 .38-.902v-.008a2.66 2.66 0 0 0-.237-1.008c-.132-.315-.3-.608-.417-.844-.092-.172-.188-.334-.278-.493h-.001c-1.9-3.324-3.725-6.688-5.54-10.073q-3.044-5.698-6.1-11.396c2.7-1.232 4.88-3.487 6.68-5.703 2.486-3.17 4.696-6.546 6.607-10.093.897-1.605 1.65-3.27 2.535-4.828.368-.65.75-1.294 1.145-1.923v-.003c.234-.38.514-.746.8-1.118v.003c.103-.133.274-.3.444-.5.193-.2.343-.435.44-.693a1.84 1.84 0 0 0 .094-.561 1.1 1.1 0 0 0-.26-.737z"
        fill="#2a2d2c"/>
    </g>
  </symbol>
</svg>